<svg width="24" height="26" viewBox="0 0 24 26" fill="none" xmlns="http://www.w3.org/2000/svg">
<path d="M4.24377 25.75C3.65349 25.75 3.15176 25.5434 2.73856 25.1302C2.32537 24.717 2.11877 24.2153 2.11877 23.625V3.4375H0.666687V1.3125H7.32502V0.25H16.675V1.3125H23.3334V3.4375H21.8813V23.625C21.8813 24.1917 21.6688 24.6875 21.2438 25.1125C20.8188 25.5375 20.3229 25.75 19.7563 25.75H4.24377ZM19.7563 3.4375H4.24377V23.625H19.7563V3.4375ZM7.99794 20.5792H10.1229V6.44792H7.99794V20.5792ZM13.8771 20.5792H16.0021V6.44792H13.8771V20.5792ZM4.24377 3.4375V23.625V3.4375Z" fill="black"/>
</svg>
